<?xml version="1.0" encoding="UTF-8"?>
<!DOCTYPE svg PUBLIC "-//W3C//DTD SVG 1.1//EN" "http://www.w3.org/Graphics/SVG/1.1/DTD/svg11.dtd">
<!-- Creator: CorelDRAW 2020 (64 Bit) -->
<svg xmlns="http://www.w3.org/2000/svg" xml:space="preserve" width="268.508mm" height="68.4557mm" version="1.1" style="shape-rendering:geometricPrecision; text-rendering:geometricPrecision; image-rendering:optimizeQuality; fill-rule:evenodd; clip-rule:evenodd"
viewBox="0 0 40584.92 10347.05"
 xmlns:xlink="http://www.w3.org/1999/xlink"
 xmlns:xodm="http://www.corel.com/coreldraw/odm/2003">
 <defs>
  <style type="text/css">
   <![CDATA[
    .fil0 {fill:#FEFEFE;fill-rule:nonzero}
   ]]>
  </style>
 </defs>
 <g id="Camada_x0020_1">
  <metadata id="CorelCorpID_0Corel-Layer"/>
  <path id="LogoVopen.cdr" class="fil0" d="M9715.38 344.45l-2896.52 0 -2398.65 4046.97c-301.72,502.27 -648.73,1148.09 -995.71,1951.72l-15.07 0c45.27,-889.74 -15.05,-1262.88 -75.42,-1879.98l-407.3 -4118.7 -2926.69 0 1342.62 10002.59 2428.85 0 5943.91 -10002.59zm15249.73 2324.85c0,-1650.36 -1342.66,-2324.85 -3650.82,-2324.85l-3424.55 0 -2232.75 10002.59c900.14,0 1800.31,0 2700.45,0l799.52 -3559.04 1040.97 0c3560.3,0 4767.18,-2310.47 4767.18,-4118.7zm-3002.12 373.13c0,803.63 -301.72,1707.75 -1568.96,1707.75l-784.47 0 512.91 -2296.13 935.34 0c528.01,0 905.17,100.45 905.17,588.38zm10080.36 -2697.97l-6109.89 0 -2232.74 10002.59 6305.99 0 482.76 -2138.28 -3605.58 0 452.59 -2037.83 2625 0 452.59 -2037.84 -2625 0 377.13 -1679.04 3382.86 0 494.29 -2109.59zm8541.57 0l-2564.6 0 -693.99 3099.79c-150.86,660.16 -346.96,1650.36 -407.3,2238.74 -105.61,-674.46 -271.56,-1377.67 -452.59,-1908.66l-1146.56 -3429.87 -2594.81 0 -2232.74 10002.59 2564.66 0 633.59 -2812.77c271.59,-1234.2 392.26,-2152.66 407.33,-2540.13 90.51,645.82 226.32,1363.34 392.23,1879.98l1086.24 3472.92 2775.8 0 2232.74 -10002.59zm-24092.75 3329.39c0,-2037.83 -751.95,-3673.84 -3232.03,-3673.84 -4221.44,0 -5435.1,4506.22 -5435.1,6902.8 0,2123.94 1134.54,3444.24 3324.4,3444.24 4683.14,0 5342.73,-5238.1 5342.73,-6673.21zm-2612 -330.05c0,1305.93 -580.46,4979.77 -2295.39,4979.77 -791.52,0 -1121.35,-287.02 -1121.35,-1463.81 0,-1291.57 633.24,-4850.6 2335,-4850.6 725.55,0 1081.73,243.96 1081.73,1334.64z"/>
 </g>
</svg>
