<?xml version="1.0" encoding="UTF-8"?>
<!DOCTYPE svg PUBLIC "-//W3C//DTD SVG 1.1//EN" "http://www.w3.org/Graphics/SVG/1.1/DTD/svg11.dtd">
<!-- Creator: CorelDRAW 2020 (64 Bit) -->
<svg xmlns="http://www.w3.org/2000/svg" xml:space="preserve" width="30mm" height="7.6485mm" version="1.1" style="shape-rendering:geometricPrecision; text-rendering:geometricPrecision; image-rendering:optimizeQuality; fill-rule:evenodd; clip-rule:evenodd"
viewBox="0 0 167.37 42.67"
 xmlns:xlink="http://www.w3.org/1999/xlink"
 xmlns:xodm="http://www.corel.com/coreldraw/odm/2003">
 <defs>
  <style type="text/css">
   <![CDATA[
    .fil0 {fill:black;fill-rule:nonzero}
   ]]>
  </style>
 </defs>
 <g id="Camada_x0020_1">
  <metadata id="CorelCorpID_0Corel-Layer"/>
  <path id="LogoVopen.cdr" class="fil0" d="M40.07 1.42l-11.95 0 -9.89 16.69c-1.24,2.07 -2.68,4.73 -4.11,8.05l-0.06 0c0.19,-3.67 -0.06,-5.21 -0.31,-7.75l-1.68 -16.99 -12.07 0 5.54 41.25 10.02 0 24.51 -41.25zm62.89 9.59c0,-6.81 -5.54,-9.59 -15.06,-9.59l-14.12 0 -9.21 41.25c3.71,0 7.42,0 11.14,0l3.3 -14.68 4.29 0c14.68,0 19.66,-9.53 19.66,-16.99zm-12.38 1.54c0,3.31 -1.24,7.04 -6.47,7.04l-3.24 0 2.12 -9.47 3.86 0c2.18,0 3.73,0.41 3.73,2.43zm41.57 -11.13l-25.2 0 -9.21 41.25 26.01 0 1.99 -8.82 -14.87 0 1.87 -8.4 10.83 0 1.87 -8.4 -10.83 0 1.56 -6.92 13.95 0 2.04 -8.7zm35.23 0l-10.58 0 -2.86 12.78c-0.62,2.72 -1.43,6.81 -1.68,9.23 -0.44,-2.78 -1.12,-5.68 -1.87,-7.87l-4.73 -14.15 -10.7 0 -9.21 41.25 10.58 0 2.61 -11.6c1.12,-5.09 1.62,-8.88 1.68,-10.48 0.37,2.66 0.93,5.62 1.62,7.75l4.48 14.32 11.45 0 9.21 -41.25zm-99.36 13.73c0,-8.4 -3.1,-15.15 -13.33,-15.15 -17.41,0 -22.41,18.58 -22.41,28.47 0,8.76 4.68,14.2 13.71,14.2 19.31,0 22.03,-21.6 22.03,-27.52zm-10.77 -1.36c0,5.39 -2.39,20.54 -9.47,20.54 -3.26,0 -4.62,-1.18 -4.62,-6.04 0,-5.33 2.61,-20 9.63,-20 2.99,0 4.46,1.01 4.46,5.5z"/>
 </g>
</svg>
