<?xml version="1.0" encoding="UTF-8"?>
<!DOCTYPE svg PUBLIC "-//W3C//DTD SVG 1.1//EN" "http://www.w3.org/Graphics/SVG/1.1/DTD/svg11.dtd">
<!-- Creator: CorelDRAW 2020 (64 Bit) -->
<svg xmlns="http://www.w3.org/2000/svg" xml:space="preserve" width="13.6102mm" height="11.6491mm" version="1.1" style="shape-rendering:geometricPrecision; text-rendering:geometricPrecision; image-rendering:optimizeQuality; fill-rule:evenodd; clip-rule:evenodd"
viewBox="0 0 39.12 33.48"
 xmlns:xlink="http://www.w3.org/1999/xlink"
 xmlns:xodm="http://www.corel.com/coreldraw/odm/2003">
 <defs>
  <style type="text/css">
   <![CDATA[
    .fil0 {fill:#FEFEFE}
   ]]>
  </style>
 </defs>
 <g id="Camada_x0020_1">
  <metadata id="CorelCorpID_0Corel-Layer"/>
  <path class="fil0" d="M-0 7.97c0,0.71 2.58,2.95 3.19,3.56 1.15,1.15 2.56,2.95 3.7,3.04l-0 17.01c-0,0.82 -0.21,1.91 0.59,1.91l24.19 0c0.34,0 0.44,-0.1 0.44,-0.44l0 -18.47c1.25,-0.03 2.49,-1.68 3.7,-2.9 3.99,-3.99 4.2,-3.06 1.54,-5.72l-4.11 -4.11c-0.57,-0.57 -1.48,-1.8 -2.46,-1.8 -7.32,0 -6.47,-0.47 -6.45,1.47 0.01,0.78 -0.14,1.06 -0.44,1.47 -1.45,1.97 -3.46,1.46 -6.46,1.46 -0.53,0 -2.69,-0.89 -2.64,-2.93 0.04,-1.95 0.81,-1.47 -6.45,-1.47 -1.08,0 -3.54,2.88 -4.36,3.7 -0.54,0.54 -4,3.77 -4,4.22z"/>
 </g>
</svg>
