<?xml version="1.0" encoding="UTF-8"?>
<!DOCTYPE svg PUBLIC "-//W3C//DTD SVG 1.1//EN" "http://www.w3.org/Graphics/SVG/1.1/DTD/svg11.dtd">
<!-- Creator: CorelDRAW 2020 (64 Bit) -->
<svg xmlns="http://www.w3.org/2000/svg" xml:space="preserve" width="14.0505mm" height="8.5045mm" version="1.1" style="shape-rendering:geometricPrecision; text-rendering:geometricPrecision; image-rendering:optimizeQuality; fill-rule:evenodd; clip-rule:evenodd"
viewBox="0 0 37.27 22.56"
 xmlns:xlink="http://www.w3.org/1999/xlink"
 xmlns:xodm="http://www.corel.com/coreldraw/odm/2003">
 <defs>
  <style type="text/css">
   <![CDATA[
    .fil0 {fill:#FEFEFE}
   ]]>
  </style>
 </defs>
 <g id="Camada_x0020_1">
  <metadata id="CorelCorpID_0Corel-Layer"/>
  <path class="fil0" d="M1.78 0l6.12 0c0.98,0 1.78,0.8 1.78,1.78l0 4.35c-1.71,0.09 -3.08,1.51 -3.08,3.24l0 1.19 -4.81 0c-0.98,0 -1.78,-0.8 -1.78,-1.78l0 -7c0,-0.98 0.8,-1.78 1.78,-1.78z"/>
  <path class="fil0" d="M29.38 0l6.12 0c0.98,0 1.78,0.8 1.78,1.78l0 7c0,0.98 -0.8,1.78 -1.78,1.78l-4.61 0 0 -1.19c0,-1.79 -1.46,-3.25 -3.25,-3.25l-0.04 0 0 -4.34c0,-0.98 0.8,-1.78 1.78,-1.78z"/>
  <path class="fil0" d="M11.07 7.35l15.32 0c1.54,0 2.8,1.26 2.8,2.8l0 9.62c0,1.54 -1.26,2.8 -2.8,2.8l-15.32 0c-1.54,0 -2.8,-1.26 -2.8,-2.8l0 -9.62c0,-1.54 1.26,-2.8 2.8,-2.8z"/>
 </g>
</svg>
