<?xml version="1.0" encoding="UTF-8"?>
<!DOCTYPE svg PUBLIC "-//W3C//DTD SVG 1.1//EN" "http://www.w3.org/Graphics/SVG/1.1/DTD/svg11.dtd">
<!-- Creator: CorelDRAW 2020 (64 Bit) -->
<svg xmlns="http://www.w3.org/2000/svg" xml:space="preserve" width="13.3862mm" height="13.596mm" version="1.1" style="shape-rendering:geometricPrecision; text-rendering:geometricPrecision; image-rendering:optimizeQuality; fill-rule:evenodd; clip-rule:evenodd"
viewBox="0 0 35.79 36.35"
 xmlns:xlink="http://www.w3.org/1999/xlink"
 xmlns:xodm="http://www.corel.com/coreldraw/odm/2003">
 <defs>
  <style type="text/css">
   <![CDATA[
    .str3 {stroke:#FEFEFE;stroke-width:0.16;stroke-linecap:round;stroke-linejoin:round;stroke-miterlimit:22.9256}
    .str2 {stroke:#FEFEFE;stroke-width:0.16;stroke-linecap:round;stroke-linejoin:round;stroke-miterlimit:22.9256}
    .str6 {stroke:#FEFEFE;stroke-width:0.16;stroke-linecap:round;stroke-linejoin:round;stroke-miterlimit:22.9256}
    .str4 {stroke:#FEFEFE;stroke-width:0.16;stroke-linecap:round;stroke-linejoin:round;stroke-miterlimit:22.9256}
    .str5 {stroke:#FEFEFE;stroke-width:0.16;stroke-linecap:round;stroke-linejoin:round;stroke-miterlimit:22.9256}
    .str0 {stroke:#FEFEFE;stroke-width:0.16;stroke-linecap:round;stroke-linejoin:round;stroke-miterlimit:22.9256}
    .str1 {stroke:#FEFEFE;stroke-width:0.16;stroke-linecap:round;stroke-linejoin:round;stroke-miterlimit:22.9256}
    .fil0 {fill:none}
    .fil1 {fill:#FEFEFE}
   ]]>
  </style>
 </defs>
 <g id="Camada_x0020_1">
  <metadata id="CorelCorpID_0Corel-Layer"/>
  <g>
   <path class="fil0 str0" d="M29.53 2.62l-5.29 -2.03c0.08,2.26 -1.48,4.08 -5.58,4.07l-0.55 31.6c3.37,0.08 7.05,-0.63 11.16,-2.42 0.94,-0.53 1.38,-1.41 1.28,-2.67l0.05 -11.08c-0.11,-1.22 -0.43,-7.65 -0.48,-7.93 -0.92,-2.45 -0.99,-5.76 -0.58,-9.55z"/>
   <path id="1" class="fil1" d="M29.53 2.62l-5.29 -2.03c0.08,2.26 -1.48,4.08 -5.58,4.07l-0.55 31.6c3.37,0.08 7.05,-0.63 11.16,-2.42 0.94,-0.53 1.38,-1.41 1.28,-2.67l0.05 -11.08c-0.11,-1.22 -0.43,-7.65 -0.48,-7.93 -0.92,-2.45 -0.99,-5.76 -0.58,-9.55z"/>
  </g>
  <g>
   <path class="fil0 str1" d="M35.01 7.08c-0.38,-2.79 -2.11,-4.08 -4.67,-4.46 -0.41,3.79 -0.34,7.1 0.58,9.55 0.06,0.28 0.37,6.71 0.48,7.93l-0.05 11.08c0.02,0.24 0.02,0.46 -0,0.68l0 0c0.55,0.81 2.03,0.91 3.55,0.88 0.48,-0.01 0.74,-0.3 0.74,-0.77 -0.39,-3.91 -0.59,-7.69 -0.29,-11.65 0.56,-4.31 0.49,-8.71 -0.34,-13.23z"/>
   <path id="1" class="fil1" d="M35.01 7.08c-0.38,-2.79 -2.11,-4.08 -4.67,-4.46 -0.41,3.79 -0.34,7.1 0.58,9.55 0.06,0.28 0.37,6.71 0.48,7.93l-0.05 11.08c0.02,0.24 0.02,0.46 -0,0.68l0 0c0.55,0.81 2.03,0.91 3.55,0.88 0.48,-0.01 0.74,-0.3 0.74,-0.77 -0.39,-3.91 -0.59,-7.69 -0.29,-11.65 0.56,-4.31 0.49,-8.71 -0.34,-13.23z"/>
  </g>
  <g>
   <path class="fil0 str2" d="M6.26 2.62l5.29 -2.03c-0.08,2.26 1.48,4.08 5.58,4.07l0.55 31.6c-3.37,0.08 -7.05,-0.63 -11.16,-2.42 -0.94,-0.53 -1.38,-1.41 -1.28,-2.67l-0.05 -11.08c0.11,-1.22 0.43,-7.65 0.48,-7.93 0.92,-2.45 0.99,-5.76 0.58,-9.55z"/>
   <path id="1" class="fil1" d="M6.26 2.62l5.29 -2.03c-0.08,2.26 1.48,4.08 5.58,4.07l0.55 31.6c-3.37,0.08 -7.05,-0.63 -11.16,-2.42 -0.94,-0.53 -1.38,-1.41 -1.28,-2.67l-0.05 -11.08c0.11,-1.22 0.43,-7.65 0.48,-7.93 0.92,-2.45 0.99,-5.76 0.58,-9.55z"/>
  </g>
  <g>
   <path class="fil0 str3" d="M0.78 7.08c0.38,-2.79 2.11,-4.08 4.67,-4.46 0.41,3.79 0.34,7.1 -0.58,9.55 -0.06,0.28 -0.37,6.71 -0.48,7.93l0.05 11.08c-0.02,0.24 -0.02,0.46 0,0.68l0 0c-0.55,0.81 -2.03,0.91 -3.55,0.88 -0.48,-0.01 -0.74,-0.3 -0.74,-0.77 0.39,-3.91 0.59,-7.69 0.29,-11.65 -0.56,-4.31 -0.49,-8.71 0.34,-13.23z"/>
   <path id="1" class="fil1" d="M0.78 7.08c0.38,-2.79 2.11,-4.08 4.67,-4.46 0.41,3.79 0.34,7.1 -0.58,9.55 -0.06,0.28 -0.37,6.71 -0.48,7.93l0.05 11.08c-0.02,0.24 -0.02,0.46 0,0.68l0 0c-0.55,0.81 -2.03,0.91 -3.55,0.88 -0.48,-0.01 -0.74,-0.3 -0.74,-0.77 0.39,-3.91 0.59,-7.69 0.29,-11.65 -0.56,-4.31 -0.49,-8.71 0.34,-13.23z"/>
  </g>
  <g>
   <path class="fil0 str4" d="M11.55 0.59l1.47 -0.5c-0.03,0.15 -0.05,0.29 -0.06,0.43 -0.21,2 0.93,2.88 3.44,2.61 0.37,0.07 0.56,0.26 0.61,0.54l0.12 0.99c-4.1,0.01 -5.65,-1.81 -5.58,-4.07z"/>
   <path id="1" class="fil1" d="M11.55 0.59l1.47 -0.5c-0.03,0.15 -0.05,0.29 -0.06,0.43 -0.21,2 0.93,2.88 3.44,2.61 0.37,0.07 0.56,0.26 0.61,0.54l0.12 0.99c-4.1,0.01 -5.65,-1.81 -5.58,-4.07z"/>
  </g>
  <g>
   <path class="fil0 str5" d="M24.24 0.59l-1.47 -0.5c0.03,0.15 0.05,0.29 0.06,0.43 0.21,2 -0.93,2.88 -3.44,2.61 -0.37,0.07 -0.56,0.26 -0.61,0.54l-0.12 0.99c4.1,0.01 5.65,-1.81 5.58,-4.07z"/>
   <path id="1" class="fil1" d="M24.24 0.59l-1.47 -0.5c0.03,0.15 0.05,0.29 0.06,0.43 0.21,2 -0.93,2.88 -3.44,2.61 -0.37,0.07 -0.56,0.26 -0.61,0.54l-0.12 0.99c4.1,0.01 5.65,-1.81 5.58,-4.07z"/>
  </g>
  <g>
   <path class="fil0 str6" d="M13.01 0.08c3.28,0.36 6.53,0.35 9.76,0.02 0.03,0.15 0.05,0.29 0.06,0.43 0.02,0.16 0.02,0.32 0.02,0.47 -3.19,0.51 -6.49,0.5 -9.91,-0.05 0,-0.13 0.01,-0.27 0.02,-0.41 0.01,-0.14 0.03,-0.28 0.06,-0.43l-0.03 0.01 0.02 -0.03z"/>
   <path id="1" class="fil1" d="M13.01 0.08c3.28,0.36 6.53,0.35 9.76,0.02 0.03,0.15 0.05,0.29 0.06,0.43 0.02,0.16 0.02,0.32 0.02,0.47 -3.19,0.51 -6.49,0.5 -9.91,-0.05 0,-0.13 0.01,-0.27 0.02,-0.41 0.01,-0.14 0.03,-0.28 0.06,-0.43l-0.03 0.01 0.02 -0.03z"/>
  </g>
 </g>
</svg>
