<?xml version="1.0" encoding="UTF-8"?>
<!DOCTYPE svg PUBLIC "-//W3C//DTD SVG 1.1//EN" "http://www.w3.org/Graphics/SVG/1.1/DTD/svg11.dtd">
<!-- Creator: CorelDRAW 2020 (64 Bit) -->
<svg xmlns="http://www.w3.org/2000/svg" xml:space="preserve" width="5.9397mm" height="13.1985mm" version="1.1" style="shape-rendering:geometricPrecision; text-rendering:geometricPrecision; image-rendering:optimizeQuality; fill-rule:evenodd; clip-rule:evenodd"
viewBox="0 0 8.02 17.83"
 xmlns:xlink="http://www.w3.org/1999/xlink"
 xmlns:xodm="http://www.corel.com/coreldraw/odm/2003">
 <defs>
  <style type="text/css">
   <![CDATA[
    .fil0 {fill:#FEFEFE}
   ]]>
  </style>
 </defs>
 <g id="Camada_x0020_1">
  <metadata id="CorelCorpID_0Corel-Layer"/>
  <path class="fil0" d="M1.22 15.79c-0.06,-0.64 -0.07,-1.32 0.02,-2.08 0.06,-0.93 0.09,-1.84 0.05,-2.7 -0.1,-0.88 -0.24,-1.72 -0.47,-2.48 -0.39,-1.48 -0.71,-2.85 -0.79,-3.85 -0.09,-0.97 -0.03,-1.87 0.25,-2.68 0.33,-0.88 0.89,-1.44 1.59,-1.81 0.61,-0.21 1.39,-0.23 2.31,-0.1 1.2,0.13 2.08,0.58 2.61,1.37 0.95,1.5 1.3,3.41 1.21,5.62l-0.14 2.37c-0.05,0.92 -0.06,1.83 -0.18,2.73l-0.39 2.93c-0.17,0.7 -0.46,1.33 -0.96,1.87 -0.4,0.44 -1.08,0.74 -2.14,0.83 -1.6,0.14 -2.76,-0.86 -2.98,-2.03z"/>
 </g>
</svg>
